<?xml version="1.0" encoding="UTF-8"?>
<svg width="109px" height="17px" viewBox="0 0 109 17" version="1.1" xmlns="http://www.w3.org/2000/svg" xmlns:xlink="http://www.w3.org/1999/xlink">
    <title>DAOSWAP</title>
    <defs>
        <path d="M5.93970889,16.4901132 C8.35480323,16.4901132 10.2092507,15.7785229 11.5030512,14.3769057 C12.7321617,13.0399784 13.3574987,11.1639677 13.3574987,8.792 C13.3574987,6.37690566 12.7752884,4.50089488 11.6324313,3.20709434 C10.3817574,1.78391375 8.54887332,1.09388679 6.11221563,1.09388679 L0.0588438318,1.09388679 L0.0588438318,16.4901132 L5.93970889,16.4901132 Z M5.6378221,14.9591159 L2.36019407,14.9591159 L2.36019407,2.6248841 L5.83189218,2.6248841 C7.85884636,2.6248841 9.32515364,3.14240431 10.2739407,4.19900809 C11.1580377,5.19092183 11.6108679,6.72191914 11.6108679,8.792 C11.6108679,10.7973908 11.1149111,12.3283881 10.166124,13.3634286 C9.1526469,14.4200323 7.64321294,14.9591159 5.6378221,14.9591159 Z M16.5380916,16.4901132 L18.5252195,11.4416781 L24.9739604,11.4416781 L26.888496,16.4901132 L28.8076334,16.4901132 L22.7483342,1.09388679 L20.6998167,1.09388679 L14.6405175,16.4901132 L16.5380916,16.4901132 Z M24.689035,10.6895741 L18.7375526,10.6895741 L21.6917305,2.99146092 L21.7779838,2.99146092 L24.689035,10.6895741 Z M37.443752,16.792 C39.7510296,16.792 41.5839137,16.0157197 42.920841,14.4847224 C44.1715148,13.0184151 44.5229024,11.120841 44.5229024,8.792 C44.5229024,6.44159569 44.1715148,4.56558491 42.920841,3.09927763 C41.5839137,1.54671698 39.7510296,0.792 37.4653154,0.792 C35.1364744,0.792 33.3251536,1.56828032 31.9882264,3.12084097 C30.7159892,4.58714825 30.1620596,6.46315903 30.1620596,8.792 C30.1620596,11.0992776 30.7159892,13.0184151 31.9882264,14.4847224 C33.3251536,16.0157197 35.1364744,16.792 37.443752,16.792 Z M37.443752,15.217876 C35.675558,15.217876 34.2739407,14.6141024 33.282027,13.4065553 C32.3332399,12.2421348 31.8588464,10.7111375 31.8588464,8.81356334 C31.8588464,6.89442588 32.3332399,5.36342857 33.282027,4.19900809 C34.295504,2.96989757 35.6971213,2.36612399 37.4653154,2.36612399 C39.2335094,2.36612399 40.6135633,2.94833423 41.6054771,4.13431806 C42.5542642,5.29873854 43.050221,6.85129919 43.050221,8.81356334 C43.050221,10.7542642 42.5542642,12.2852615 41.6054771,13.4496819 C40.6135633,14.6141024 39.2119461,15.217876 37.443752,15.217876 Z M53.0663935,16.792 C54.8992776,16.792 56.3440216,16.4038598 57.4221887,15.6491429 C58.5003558,14.8728625 59.0394394,13.7946954 59.0394394,12.4577682 C59.0394394,11.0561509 58.3925391,9.97798383 57.1203019,9.2017035 C56.4734016,8.81356334 55.1364744,8.31760647 53.1095202,7.71383288 C52.9742593,7.67462681 52.8434535,7.63631178 52.7171192,7.59888779 L52.3515469,7.48928899 C51.2951699,7.168512 50.6022916,6.91990983 50.2847224,6.74348248 C49.4006253,6.26908895 48.9693585,5.64375202 48.9693585,4.8674717 C48.9693585,3.98337466 49.3359353,3.33647439 50.0690889,2.90520755 C50.7159892,2.51706739 51.6000863,2.34456065 52.7429434,2.34456065 C53.9936173,2.34456065 54.9639677,2.60332075 55.6539946,3.16396765 C56.3224582,3.70305121 56.7537251,4.52245822 56.9477951,5.64375202 L58.6944259,5.64375202 C58.5434825,4.02650135 57.9612722,2.79739084 56.9262318,1.97798383 C55.9343181,1.18014016 54.5542642,0.792 52.8291968,0.792 C51.2335094,0.792 49.9181456,1.13701348 48.9046685,1.82704043 C47.7618113,2.56019407 47.2011644,3.61679784 47.2011644,4.95372507 C47.2011644,6.24752561 47.7833747,7.23943935 48.9693585,7.92946631 C49.4653154,8.18822642 50.6512992,8.61949326 52.5057466,9.18014016 C54.230814,9.67609704 55.3305445,10.0426739 55.7618113,10.301434 C56.7752884,10.8405175 57.2928086,11.5952345 57.2928086,12.5655849 C57.2928086,13.3849919 56.9046685,14.0318922 56.1283881,14.5062857 C55.3521078,14.9806792 54.3170674,15.217876 53.0663935,15.217876 C51.6863396,15.217876 50.6512992,14.9159892 49.9397089,14.3553423 C49.1634286,13.7300054 48.689035,12.7380916 48.5380916,11.4011644 L46.7914609,11.4011644 C46.920841,13.2987385 47.5893046,14.7003558 48.7968518,15.6275795 C49.8318922,16.4038598 51.2550728,16.792 53.0663935,16.792 Z M66.5973908,16.4901132 L70.1122156,3.65992453 L70.1769057,3.65992453 L73.6701671,16.4901132 L75.6324313,16.4901132 L80.0529164,1.09388679 L78.0690889,1.09388679 L74.6836442,12.9991195 L71.6386654,1.09388679 L68.516793,1.09388679 L65.4090865,12.9991195 L62.198469,1.09388679 L60.2146415,1.09388679 L64.6351267,16.4901132 L66.5973908,16.4901132 Z M82.4356658,16.4901132 L84.2172767,11.5742914 L90.9053351,11.5742914 L92.7860701,16.4901132 L94.7052075,16.4901132 L88.6459084,1.09388679 L86.5973908,1.09388679 L80.5380916,16.4901132 L82.4356658,16.4901132 Z M90.5866092,10.6895741 L84.6351267,10.6895741 L87.5893046,2.99146092 L87.675558,2.99146092 L90.5866092,10.6895741 Z M98.4033208,16.4901132 L98.4033208,9.8787785 L102.910059,10.1936173 C106.446447,10.1936173 108.236205,8.66261995 108.236205,5.62218868 C108.236205,2.60332075 106.468011,1.09388679 102.931623,1.09388679 L96.6351267,1.09388679 L96.6351267,16.4901132 L98.4033208,16.4901132 Z M102.823806,8.66261995 L98.4033208,8.66261995 L98.4033208,2.6248841 L102.823806,2.6248841 C104.052916,2.6248841 104.958577,2.86208086 105.56235,3.37960108 C106.166124,3.83243127 106.468011,4.58714825 106.468011,5.62218868 C106.468011,6.65722911 106.166124,7.41194609 105.583914,7.90790296 C104.98014,8.40385984 104.07448,8.66261995 102.823806,8.66261995 Z" id="path-1"></path>
    </defs>
    <g id="页面-1" stroke="none" stroke-width="1" fill="none" fill-rule="evenodd">
        <g id="DAOSWAP" fill-rule="nonzero" fill="#FFFFFF">
            <use xlink:href="#path-1"></use>
            <use xlink:href="#path-1"></use>
        </g>
    </g>
</svg>